<svg xmlns="http://www.w3.org/2000/svg" xmlns:xlink="http://www.w3.org/1999/xlink" width="500" zoomAndPan="magnify" viewBox="0 0 375 374.999991" height="500" preserveAspectRatio="xMidYMid meet" version="1.0"><rect x="-37.5" width="450" fill="#ffffff" y="-37.499999" height="449.999989" fill-opacity="1"/><rect x="-37.5" width="450" fill="#ffffff" y="-37.499999" height="449.999989" fill-opacity="1"/><rect x="-37.5" width="450" fill="#ffffff" y="-37.499999" height="449.999989" fill-opacity="1"/><rect x="-37.5" width="450" fill="#2563eb" y="-37.499999" height="449.999989" fill-opacity="1"/><path fill="#ffffff" d="M 46.210938 95.28125 L 46.210938 144.558594 L 61.375 144.558594 L 61.375 150.226562 L 40.082031 150.226562 L 40.082031 95.28125 Z M 46.210938 95.28125 " fill-opacity="1" fill-rule="nonzero"/><path fill="#ffffff" d="M 97.234375 134.324219 L 70.316406 134.324219 C 70.433594 137.734375 71.5625 140.5 73.679688 142.621094 C 75.824219 144.742188 78.453125 145.800781 81.5625 145.800781 C 83.742188 145.800781 85.664062 145.25 87.324219 144.140625 C 89.007812 143.011719 90.5625 141.191406 91.980469 138.703125 L 96.914062 141.5625 C 95.277344 144.601562 93.109375 146.976562 90.414062 148.660156 C 87.707031 150.34375 84.605469 151.195312 81.101562 151.195312 C 77.75 151.195312 74.789062 150.386719 72.207031 148.796875 C 69.648438 147.171875 67.699219 145.019531 66.351562 142.34375 C 65.027344 139.648438 64.371094 136.710938 64.371094 133.539062 C 64.371094 130.039062 65.027344 126.890625 66.351562 124.089844 C 67.699219 121.269531 69.636719 119.054688 72.160156 117.453125 C 74.671875 115.828125 77.609375 115.011719 80.964844 115.011719 C 84.214844 115.011719 87.09375 115.816406 89.582031 117.40625 C 92.097656 118.976562 94.007812 121.140625 95.300781 123.90625 C 96.613281 126.671875 97.28125 129.796875 97.28125 133.265625 C 97.28125 133.609375 97.257812 133.957031 97.234375 134.324219 Z M 91.105469 129.390625 C 90.609375 126.71875 89.410156 124.550781 87.507812 122.894531 C 85.632812 121.234375 83.476562 120.402344 81.054688 120.402344 C 78.660156 120.402344 76.414062 121.28125 74.328125 123.03125 C 72.230469 124.761719 71.007812 126.878906 70.640625 129.390625 Z M 91.105469 129.390625 " fill-opacity="1" fill-rule="nonzero"/><path fill="#ffffff" d="M 135.0625 134.324219 L 108.144531 134.324219 C 108.257812 137.734375 109.386719 140.5 111.507812 142.621094 C 113.652344 144.742188 116.277344 145.800781 119.390625 145.800781 C 121.566406 145.800781 123.492188 145.25 125.152344 144.140625 C 126.835938 143.011719 128.390625 141.191406 129.808594 138.703125 L 134.738281 141.5625 C 133.101562 144.601562 130.9375 146.976562 128.242188 148.660156 C 125.53125 150.34375 122.433594 151.195312 118.929688 151.195312 C 115.574219 151.195312 112.613281 150.386719 110.035156 148.796875 C 107.476562 147.171875 105.527344 145.019531 104.179688 142.34375 C 102.855469 139.648438 102.199219 136.710938 102.199219 133.539062 C 102.199219 130.039062 102.855469 126.890625 104.179688 124.089844 C 105.527344 121.269531 107.464844 119.054688 109.988281 117.453125 C 112.5 115.828125 115.4375 115.011719 118.792969 115.011719 C 122.039062 115.011719 124.921875 115.816406 127.410156 117.40625 C 129.921875 118.976562 131.835938 121.140625 133.125 123.90625 C 134.441406 126.671875 135.109375 129.796875 135.109375 133.265625 C 135.109375 133.609375 135.085938 133.957031 135.0625 134.324219 Z M 128.933594 129.390625 C 128.4375 126.71875 127.238281 124.550781 125.335938 122.894531 C 123.457031 121.234375 121.304688 120.402344 118.882812 120.402344 C 116.488281 120.402344 114.238281 121.28125 112.152344 123.03125 C 110.054688 124.761719 108.835938 126.878906 108.464844 129.390625 Z M 128.933594 129.390625 " fill-opacity="1" fill-rule="nonzero"/><path fill="#ffffff" d="M 148.734375 94.316406 L 154.128906 96.296875 L 145.832031 114.871094 L 141.914062 113.351562 Z M 148.734375 94.316406 " fill-opacity="1" fill-rule="nonzero"/><path fill="#ffffff" d="M 178.003906 123.90625 C 177.453125 122.800781 176.761719 121.949219 175.929688 121.324219 C 175.101562 120.714844 174.226562 120.402344 173.304688 120.402344 C 172.253906 120.402344 171.285156 120.796875 170.398438 121.554688 C 169.535156 122.292969 169.109375 123.191406 169.109375 124.230469 C 169.109375 126.199219 171.007812 127.894531 174.824219 129.300781 C 178.625 130.683594 181.277344 132.203125 182.753906 133.863281 C 184.226562 135.5 184.964844 137.550781 184.964844 140.039062 C 184.964844 141.917969 184.515625 143.679688 183.628906 145.339844 C 182.761719 147 181.425781 148.40625 179.617188 149.535156 C 177.796875 150.640625 175.722656 151.195312 173.394531 151.195312 C 170.558594 151.195312 168.070312 150.433594 165.929688 148.9375 C 163.808594 147.4375 162.25 145.285156 161.273438 142.484375 L 166.480469 140.316406 C 167.332031 142.34375 168.300781 143.773438 169.386719 144.601562 C 170.492188 145.410156 171.851562 145.800781 173.488281 145.800781 C 175.113281 145.800781 176.4375 145.316406 177.453125 144.328125 C 178.488281 143.3125 179.019531 142.058594 179.019531 140.546875 C 179.019531 139.292969 178.558594 138.183594 177.636719 137.226562 C 176.714844 136.285156 175.019531 135.328125 172.566406 134.371094 C 170.097656 133.390625 168.199219 132.410156 166.851562 131.421875 C 164.695312 129.886719 163.601562 127.664062 163.578125 124.738281 C 163.578125 122.007812 164.546875 119.703125 166.480469 117.824219 C 168.417969 115.957031 170.835938 115.011719 173.765625 115.011719 C 175.609375 115.011719 177.371094 115.597656 179.066406 116.761719 C 180.78125 117.9375 182.039062 119.472656 182.84375 121.371094 Z M 178.003906 123.90625 " fill-opacity="1" fill-rule="nonzero"/><path fill="#ffffff" d="M 81.980469 209.003906 C 79.640625 206.675781 77.023438 204.878906 74.144531 203.609375 C 71.25 202.355469 68.289062 201.71875 65.25 201.71875 C 61.339844 201.71875 57.664062 202.769531 54.230469 204.855469 C 50.785156 206.953125 48.066406 209.742188 46.074219 213.242188 C 44.066406 216.722656 43.078125 220.457031 43.078125 224.445312 C 43.078125 228.316406 44.066406 232.039062 46.074219 235.597656 C 48.101562 239.136719 50.832031 241.949219 54.277344 244.035156 C 57.746094 246.132812 61.445312 247.167969 65.386719 247.167969 C 68.335938 247.167969 71.25 246.546875 74.144531 245.277344 C 77.023438 244.023438 79.640625 242.226562 81.980469 239.886719 L 81.980469 247.492188 C 79.640625 249.183594 77.046875 250.511719 74.191406 251.457031 C 71.355469 252.398438 68.496094 252.882812 65.617188 252.882812 C 60.730469 252.882812 56.050781 251.675781 51.605469 249.242188 C 47.179688 246.789062 43.628906 243.378906 40.957031 239.011719 C 38.285156 234.652344 36.945312 229.871094 36.945312 224.675781 C 36.945312 219.511719 38.238281 214.742188 40.820312 210.339844 C 43.398438 205.949219 46.902344 202.457031 51.328125 199.875 C 55.777344 197.296875 60.546875 196.003906 65.617188 196.003906 C 68.714844 196.003906 71.746094 196.535156 74.699219 197.570312 C 77.671875 198.585938 80.101562 199.863281 81.980469 201.398438 Z M 81.980469 209.003906 " fill-opacity="1" fill-rule="nonzero"/><path fill="#ffffff" d="M 122.160156 236.015625 L 95.242188 236.015625 C 95.359375 239.425781 96.488281 242.191406 98.609375 244.3125 C 100.75 246.429688 103.378906 247.492188 106.488281 247.492188 C 108.667969 247.492188 110.59375 246.9375 112.25 245.832031 C 113.933594 244.703125 115.488281 242.882812 116.90625 240.394531 L 121.839844 243.25 C 120.203125 246.292969 118.035156 248.667969 115.339844 250.347656 C 112.632812 252.03125 109.53125 252.882812 106.027344 252.882812 C 102.675781 252.882812 99.714844 252.078125 97.132812 250.488281 C 94.574219 248.863281 92.628906 246.707031 91.277344 244.035156 C 89.953125 241.335938 89.296875 238.398438 89.296875 235.230469 C 89.296875 231.726562 89.953125 228.582031 91.277344 225.78125 C 92.628906 222.957031 94.5625 220.746094 97.085938 219.144531 C 99.597656 217.519531 102.539062 216.699219 105.890625 216.699219 C 109.140625 216.699219 112.019531 217.507812 114.511719 219.097656 C 117.023438 220.664062 118.933594 222.832031 120.226562 225.597656 C 121.539062 228.363281 122.207031 231.484375 122.207031 234.953125 C 122.207031 235.300781 122.183594 235.644531 122.160156 236.015625 Z M 116.03125 231.082031 C 115.535156 228.410156 114.335938 226.242188 112.4375 224.582031 C 110.558594 222.921875 108.402344 222.09375 105.984375 222.09375 C 103.585938 222.09375 101.339844 222.96875 99.253906 224.722656 C 97.15625 226.449219 95.933594 228.570312 95.566406 231.082031 Z M 116.03125 231.082031 " fill-opacity="1" fill-rule="nonzero"/><path fill="#ffffff" d="M 145.929688 223.660156 C 145.34375 223.199219 144.789062 222.832031 144.269531 222.554688 C 143.742188 222.253906 143.128906 222.09375 142.425781 222.09375 C 140.238281 222.09375 138.566406 223.085938 137.402344 225.042969 C 136.261719 226.980469 135.695312 230.113281 135.695312 234.445312 L 135.695312 251.917969 L 129.890625 251.917969 L 129.890625 217.667969 L 135.695312 217.667969 L 135.695312 221.402344 L 135.835938 221.402344 C 137.242188 219.5 138.484375 218.246094 139.570312 217.621094 C 140.675781 217.011719 141.964844 216.699219 143.441406 216.699219 C 144.292969 216.699219 145.167969 216.863281 146.066406 217.160156 C 146.988281 217.4375 147.867188 217.828125 148.695312 218.3125 Z M 145.929688 223.660156 " fill-opacity="1" fill-rule="nonzero"/><path fill="#ffffff" d="M 180.027344 222.554688 L 180.027344 217.667969 L 185.832031 217.667969 L 185.832031 251.917969 L 180.027344 251.917969 L 180.027344 247.167969 L 179.886719 247.167969 C 176.867188 250.984375 172.9375 252.882812 168.085938 252.882812 C 163.316406 252.882812 159.386719 251.132812 156.289062 247.628906 C 153.210938 244.125 151.679688 239.875 151.679688 234.863281 C 151.679688 229.605469 153.222656 225.273438 156.332031 221.863281 C 159.433594 218.429688 163.363281 216.699219 168.132812 216.699219 C 170.53125 216.699219 172.71875 217.230469 174.726562 218.269531 C 176.753906 219.28125 178.46875 220.710938 179.886719 222.554688 Z M 168.777344 222.09375 C 165.667969 222.09375 163.039062 223.292969 160.898438 225.6875 C 158.742188 228.0625 157.671875 230.976562 157.671875 234.445312 C 157.671875 238.132812 158.707031 241.246094 160.804688 243.757812 C 162.925781 246.246094 165.609375 247.492188 168.871094 247.492188 C 172.304688 247.492188 175.070312 246.316406 177.167969 243.941406 C 179.253906 241.546875 180.300781 238.398438 180.300781 234.492188 C 180.300781 230.964844 179.21875 228.015625 177.074219 225.644531 C 174.957031 223.28125 172.191406 222.09375 168.777344 222.09375 Z M 168.777344 222.09375 " fill-opacity="1" fill-rule="nonzero"/><path fill="#ffffff" d="M 220.328125 222.417969 C 221.34375 220.605469 222.75 219.210938 224.570312 218.222656 C 226.414062 217.207031 228.417969 216.699219 230.609375 216.699219 C 234.203125 216.699219 236.921875 217.921875 238.765625 220.34375 C 240.609375 222.773438 241.53125 226.230469 241.53125 230.714844 L 241.53125 251.917969 L 235.722656 251.917969 L 235.722656 231.589844 C 235.722656 228.15625 235.195312 225.710938 234.15625 224.261719 C 233.144531 222.820312 231.574219 222.09375 229.457031 222.09375 C 226.898438 222.09375 225.007812 223.039062 223.785156 224.90625 C 222.585938 226.75 221.988281 229.582031 221.988281 233.386719 L 221.988281 251.917969 L 216.179688 251.917969 L 216.179688 232.1875 C 216.179688 228.683594 215.648438 226.136719 214.613281 224.535156 C 213.5625 222.910156 212.042969 222.09375 210.050781 222.09375 C 207.5625 222.09375 205.671875 223.039062 204.378906 224.90625 C 203.113281 226.785156 202.492188 229.769531 202.492188 233.847656 L 202.492188 251.917969 L 196.636719 251.917969 L 196.636719 217.667969 L 202.492188 217.667969 L 202.492188 221.402344 L 202.628906 221.402344 C 203.550781 219.996094 204.714844 218.855469 206.132812 217.992188 C 207.539062 217.136719 209.105469 216.699219 210.832031 216.699219 C 212.828125 216.699219 214.671875 217.207031 216.363281 218.222656 C 218.082031 219.210938 219.40625 220.605469 220.328125 222.417969 Z M 220.328125 222.417969 " fill-opacity="1" fill-rule="nonzero"/><path fill="#ffffff" d="M 259.527344 217.667969 L 259.527344 251.917969 L 253.71875 251.917969 L 253.71875 217.667969 Z M 252.472656 204.625 C 252.472656 203.550781 252.886719 202.617188 253.71875 201.8125 C 254.570312 201.015625 255.539062 200.613281 256.621094 200.613281 C 257.726562 200.613281 258.695312 201.015625 259.527344 201.8125 C 260.355469 202.617188 260.769531 203.550781 260.769531 204.625 C 260.769531 205.890625 260.355469 206.917969 259.527344 207.710938 C 258.695312 208.519531 257.726562 208.910156 256.621094 208.910156 C 255.515625 208.910156 254.546875 208.53125 253.71875 207.757812 C 252.886719 206.996094 252.472656 205.949219 252.472656 204.625 Z M 252.472656 204.625 " fill-opacity="1" fill-rule="nonzero"/><path fill="#ffffff" d="M 297.152344 227.855469 L 297.011719 227.855469 C 295.746094 226.171875 294.199219 224.789062 292.355469 223.707031 C 290.535156 222.636719 288.542969 222.09375 286.363281 222.09375 C 282.953125 222.09375 280.074219 223.339844 277.746094 225.828125 C 275.40625 228.316406 274.242188 231.300781 274.242188 234.769531 C 274.242188 238.273438 275.359375 241.269531 277.605469 243.757812 C 279.84375 246.246094 282.675781 247.492188 286.089844 247.492188 C 288.542969 247.492188 290.664062 246.972656 292.449219 245.925781 C 294.222656 244.886719 295.824219 243.421875 297.242188 241.546875 L 297.382812 241.546875 L 297.382812 249.382812 C 295.746094 250.488281 294.027344 251.351562 292.21875 251.960938 C 290.433594 252.574219 288.53125 252.882812 286.503906 252.882812 C 283.242188 252.882812 280.1875 252.101562 277.332031 250.535156 C 274.496094 248.964844 272.285156 246.800781 270.691406 244.035156 C 269.089844 241.246094 268.296875 238.15625 268.296875 234.769531 C 268.296875 231.636719 269.078125 228.671875 270.648438 225.875 C 272.238281 223.085938 274.472656 220.847656 277.332031 219.191406 C 280.1875 217.53125 283.277344 216.699219 286.59375 216.699219 C 288.347656 216.699219 290.050781 216.953125 291.710938 217.4375 C 293.394531 217.933594 295.214844 218.84375 297.152344 220.15625 Z M 297.152344 227.855469 " fill-opacity="1" fill-rule="nonzero"/><path fill="#ffffff" d="M 320.273438 225.597656 C 319.722656 224.492188 319.03125 223.636719 318.199219 223.015625 C 317.371094 222.40625 316.496094 222.09375 315.574219 222.09375 C 314.523438 222.09375 313.554688 222.484375 312.667969 223.246094 C 311.804688 223.984375 311.378906 224.882812 311.378906 225.917969 C 311.378906 227.890625 313.28125 229.582031 317.09375 230.988281 C 320.898438 232.371094 323.546875 233.894531 325.023438 235.554688 C 326.496094 237.1875 327.234375 239.242188 327.234375 241.730469 C 327.234375 243.609375 326.785156 245.371094 325.898438 247.03125 C 325.035156 248.691406 323.695312 250.09375 321.886719 251.226562 C 320.066406 252.332031 317.992188 252.882812 315.664062 252.882812 C 312.832031 252.882812 310.339844 252.125 308.199219 250.625 C 306.078125 249.128906 304.523438 246.972656 303.542969 244.171875 L 308.75 242.007812 C 309.605469 244.035156 310.570312 245.464844 311.65625 246.292969 C 312.761719 247.097656 314.121094 247.492188 315.757812 247.492188 C 317.382812 247.492188 318.707031 247.007812 319.722656 246.015625 C 320.757812 245.003906 321.289062 243.746094 321.289062 242.238281 C 321.289062 240.980469 320.828125 239.875 319.90625 238.917969 C 318.984375 237.972656 317.289062 237.015625 314.835938 236.058594 C 312.371094 235.082031 310.46875 234.101562 309.121094 233.109375 C 306.964844 231.578125 305.871094 229.351562 305.847656 226.425781 C 305.847656 223.695312 306.816406 221.390625 308.75 219.511719 C 310.6875 217.644531 313.105469 216.699219 316.035156 216.699219 C 317.878906 216.699219 319.640625 217.289062 321.335938 218.453125 C 323.050781 219.628906 324.308594 221.160156 325.113281 223.0625 Z M 320.273438 225.597656 " fill-opacity="1" fill-rule="nonzero"/><path fill="#ffffff" d="M 228.15625 292.613281 L 228.109375 291.738281 L 229.492188 291.414062 C 229.515625 291.320312 229.539062 291.136719 229.539062 290.859375 C 229.5625 290.585938 229.585938 290.214844 229.585938 289.753906 C 229.585938 289.269531 229.585938 288.683594 229.585938 288.003906 L 229.585938 283.671875 C 229.585938 283 229.585938 282.414062 229.585938 281.917969 C 229.585938 281.433594 229.5625 281.042969 229.539062 280.765625 C 229.539062 280.488281 229.515625 280.328125 229.492188 280.257812 L 228.109375 279.9375 L 228.15625 279.0625 L 233.042969 279.0625 L 233.085938 279.9375 L 231.703125 280.257812 C 231.671875 280.328125 231.636719 280.476562 231.613281 280.71875 C 231.578125 280.972656 231.566406 281.34375 231.566406 281.828125 C 231.566406 282.289062 231.566406 282.910156 231.566406 283.671875 L 231.566406 288.003906 C 231.566406 288.742188 231.566406 289.363281 231.566406 289.847656 C 231.566406 290.308594 231.578125 290.675781 231.613281 290.953125 C 231.636719 291.207031 231.671875 291.355469 231.703125 291.414062 L 233.085938 291.738281 L 233.042969 292.613281 Z M 228.15625 292.613281 " fill-opacity="1" fill-rule="nonzero"/><path fill="#ffffff" d="M 252.886719 289.292969 L 252.886719 284.132812 C 252.886719 283.242188 252.863281 282.519531 252.839844 281.964844 C 252.839844 281.410156 252.816406 281.019531 252.792969 280.765625 C 252.792969 280.488281 252.773438 280.328125 252.75 280.257812 L 251.179688 279.9375 L 251.273438 279.0625 L 255.652344 279.0625 L 255.699219 279.9375 L 254.269531 280.257812 C 254.269531 280.328125 254.246094 280.488281 254.222656 280.765625 C 254.222656 281.019531 254.199219 281.410156 254.175781 281.964844 C 254.175781 282.519531 254.175781 283.242188 254.175781 284.132812 L 254.175781 289.617188 C 254.175781 290.113281 254.175781 290.617188 254.175781 291.136719 C 254.175781 291.632812 254.175781 292.152344 254.175781 292.703125 L 253.164062 292.703125 L 244.683594 281.273438 L 245.1875 281.273438 L 245.1875 287.449219 C 245.1875 288.371094 245.1875 289.109375 245.1875 289.664062 C 245.210938 290.214844 245.234375 290.628906 245.234375 290.90625 C 245.257812 291.183594 245.292969 291.355469 245.328125 291.414062 L 246.894531 291.738281 L 246.800781 292.613281 L 242.378906 292.613281 L 242.332031 291.738281 L 243.714844 291.414062 C 243.738281 291.355469 243.761719 291.207031 243.761719 290.953125 C 243.785156 290.675781 243.804688 290.261719 243.804688 289.707031 C 243.828125 289.132812 243.851562 288.371094 243.851562 287.449219 L 243.851562 283.53125 C 243.851562 282.828125 243.828125 282.265625 243.804688 281.828125 C 243.804688 281.367188 243.785156 281.019531 243.761719 280.765625 C 243.761719 280.523438 243.738281 280.351562 243.714844 280.257812 L 242.332031 279.9375 L 242.378906 279.0625 L 245.558594 279.0625 L 253.300781 289.292969 Z M 252.886719 289.292969 " fill-opacity="1" fill-rule="nonzero"/><path fill="#ffffff" d="M 272.316406 292.84375 C 270.988281 292.84375 269.78125 292.589844 268.671875 292.058594 C 267.566406 291.539062 266.667969 290.769531 266 289.753906 C 265.355469 288.71875 265.03125 287.4375 265.03125 285.929688 C 265.03125 284.984375 265.191406 284.074219 265.539062 283.210938 C 265.871094 282.355469 266.367188 281.597656 267.015625 280.949219 C 267.683594 280.304688 268.488281 279.796875 269.410156 279.429688 C 270.355469 279.0625 271.4375 278.875 272.636719 278.875 C 273.246094 278.875 273.90625 278.945312 274.621094 279.0625 C 275.320312 279.1875 275.957031 279.359375 276.507812 279.566406 L 276.695312 282.75 L 275.632812 282.839844 L 274.941406 280.628906 C 274.664062 280.445312 274.273438 280.304688 273.789062 280.214844 C 273.328125 280.097656 272.867188 280.027344 272.40625 280.027344 C 271.265625 280.027344 270.332031 280.292969 269.59375 280.8125 C 268.859375 281.308594 268.316406 281.964844 267.980469 282.792969 C 267.636719 283.625 267.476562 284.535156 267.476562 285.515625 C 267.476562 286.839844 267.683594 287.957031 268.121094 288.878906 C 268.582031 289.777344 269.191406 290.445312 269.964844 290.90625 C 270.757812 291.367188 271.625 291.597656 272.546875 291.597656 C 273.027344 291.597656 273.476562 291.550781 273.882812 291.460938 C 274.273438 291.34375 274.664062 291.171875 275.035156 290.953125 L 276.046875 288.785156 L 277.109375 288.878906 L 276.464844 291.78125 C 275.933594 292.058594 275.3125 292.3125 274.574219 292.519531 C 273.859375 292.726562 273.109375 292.84375 272.316406 292.84375 Z M 272.316406 292.84375 " fill-opacity="1" fill-rule="nonzero"/><path fill="#ffffff" d="M 287.546875 292.84375 C 287.109375 292.84375 286.765625 292.703125 286.488281 292.429688 C 286.210938 292.152344 286.074219 291.816406 286.074219 291.414062 C 286.074219 291.136719 286.128906 290.90625 286.257812 290.722656 C 286.371094 290.515625 286.546875 290.34375 286.765625 290.214844 C 287.007812 290.101562 287.25 290.03125 287.503906 290.03125 C 287.929688 290.03125 288.285156 290.167969 288.5625 290.445312 C 288.839844 290.699219 288.976562 291.023438 288.976562 291.414062 C 288.976562 291.816406 288.839844 292.152344 288.5625 292.429688 C 288.285156 292.703125 287.941406 292.84375 287.546875 292.84375 Z M 287.546875 292.84375 " fill-opacity="1" fill-rule="nonzero"/><path stroke-linecap="butt" transform="matrix(2.2125, 0, 0, 2.2125, 10.38765, 14.569716)" fill="none" stroke-linejoin="miter" d="M 0.00134453 0.997798 L 160.054288 0.997798 " stroke="#ffffff" stroke-width="2" stroke-opacity="1" stroke-miterlimit="4"/><path stroke-linecap="butt" transform="matrix(2.212494, -0.0055293, 0.0055293, 2.212494, 10.384867, 366.13439)" fill="none" stroke-linejoin="miter" d="M 0.000106825 0.998584 L 160.058795 0.997813 " stroke="#ffffff" stroke-width="2" stroke-opacity="1" stroke-miterlimit="4"/><path stroke-linecap="butt" transform="matrix(0, 2.2125, -2.2125, 0, 13.476713, 17.235936)" fill="none" stroke-linejoin="miter" d="M 0.00105986 0.997596 L 36.808972 0.997596 " stroke="#ffffff" stroke-width="2" stroke-opacity="1" stroke-miterlimit="4"/><path stroke-linecap="butt" transform="matrix(0, 2.2125, -2.2125, 0, 365.827627, 16.793407)" fill="none" stroke-linejoin="miter" d="M -0.00196364 0.997303 L 36.804183 0.997303 " stroke="#ffffff" stroke-width="2" stroke-opacity="1" stroke-miterlimit="4"/><path stroke-linecap="butt" transform="matrix(0, 2.2125, -2.2125, 0, 12.811879, 287.755937)" fill="none" stroke-linejoin="miter" d="M -0.00268344 1.000778 L 36.805229 1.000778 " stroke="#ffffff" stroke-width="2" stroke-opacity="1" stroke-miterlimit="4"/><path stroke-linecap="butt" transform="matrix(0, 2.2125, -2.2125, 0, 366.714854, 286.922676)" fill="none" stroke-linejoin="miter" d="M -0.000362196 0.997533 L 36.805784 0.997533 " stroke="#ffffff" stroke-width="2" stroke-opacity="1" stroke-miterlimit="4"/></svg>